<?xml version="1.0" standalone="no"?>
<!DOCTYPE svg PUBLIC "-//W3C//DTD SVG 20010904//EN"
 "http://www.w3.org/TR/2001/REC-SVG-20010904/DTD/svg10.dtd">
<svg version="1.0" xmlns="http://www.w3.org/2000/svg"
 width="1575.000000pt" height="1575.000000pt" viewBox="0 0 1575.000000 1575.000000"
 preserveAspectRatio="xMidYMid meet">
<metadata>
Created by potrace 1.11, written by Peter Selinger 2001-2013
</metadata>
<g transform="translate(0.000000,1575.000000) scale(0.100000,-0.100000)"
fill="#000000" stroke="none">
<path d="M7697 14364 c-1 -1 -69 -5 -152 -8 -146 -6 -172 -8 -299 -20 -141
-14 -162 -16 -186 -21 -14 -2 -52 -7 -85 -11 -33 -3 -69 -8 -80 -10 -11 -3
-36 -6 -55 -9 -19 -3 -46 -7 -60 -10 -14 -3 -41 -8 -60 -11 -135 -21 -453 -93
-615 -139 -49 -14 -97 -27 -105 -29 -36 -9 -255 -82 -355 -118 -295 -108 -647
-265 -874 -390 -58 -32 -106 -58 -108 -58 -2 0 -29 -16 -59 -35 -30 -19 -57
-35 -59 -35 -18 0 -475 -302 -550 -362 -5 -5 -53 -41 -105 -80 -52 -39 -97
-74 -100 -77 -3 -4 -30 -26 -60 -51 -201 -163 -541 -487 -699 -665 -29 -33
-63 -71 -75 -85 -12 -14 -53 -63 -91 -110 -38 -47 -72 -87 -75 -90 -52 -46
-393 -536 -488 -700 -173 -301 -255 -461 -357 -695 -8 -16 -24 -55 -38 -85
-13 -30 -32 -77 -42 -105 -10 -27 -22 -54 -26 -60 -10 -15 -153 -442 -188
-565 -33 -117 -72 -275 -87 -354 -2 -16 -7 -32 -9 -36 -2 -3 -10 -44 -19 -90
-25 -139 -26 -144 -31 -165 -2 -11 -7 -43 -10 -71 -3 -28 -7 -60 -9 -71 -3
-11 -7 -44 -11 -73 -4 -29 -8 -61 -10 -71 -2 -10 -7 -53 -10 -96 -4 -43 -9
-87 -11 -97 -10 -54 -19 -311 -19 -561 0 -358 13 -561 56 -860 26 -180 27
-187 44 -270 8 -38 16 -84 19 -101 14 -81 71 -314 107 -439 200 -698 490
-1308 906 -1905 83 -120 264 -354 344 -445 151 -173 213 -240 333 -363 78 -78
190 -186 250 -240 60 -53 114 -102 120 -107 23 -21 143 -121 175 -145 18 -14
38 -30 44 -35 26 -24 258 -195 347 -257 336 -232 743 -456 1115 -612 88 -37
169 -72 180 -77 168 -74 699 -239 950 -294 46 -10 342 -66 370 -70 17 -3 41
-7 54 -10 14 -2 61 -9 105 -15 45 -6 92 -13 106 -15 14 -2 52 -6 85 -10 33 -3
81 -8 107 -11 126 -14 414 -27 628 -28 163 0 467 10 525 18 17 3 62 7 100 10
39 4 84 8 100 10 17 2 57 7 90 11 33 3 105 13 160 21 55 8 111 17 125 19 22 3
51 8 120 20 87 16 236 49 302 66 46 11 94 23 108 26 168 30 784 241 1010 345
30 14 84 39 120 56 294 135 572 290 845 470 88 59 165 110 170 114 6 5 73 55
150 112 260 194 438 348 690 601 326 325 552 599 792 960 98 147 253 398 253
409 0 4 11 24 25 46 28 44 165 314 213 420 60 133 71 158 127 299 118 296 226
651 294 971 22 102 42 199 45 215 13 79 46 305 50 345 20 171 21 184 33 355
10 154 10 659 0 795 -17 229 -27 320 -42 420 -2 14 -9 61 -15 106 -6 44 -13
91 -15 105 -3 13 -12 62 -21 109 -22 125 -85 404 -105 465 -5 17 -25 84 -43
150 -177 621 -493 1273 -894 1840 -74 104 -100 139 -141 191 -5 6 -29 37 -54
70 -180 237 -549 624 -827 868 -239 209 -700 545 -895 651 -11 6 -38 23 -60
37 -22 13 -71 41 -108 62 -37 20 -84 46 -105 58 -80 45 -334 169 -457 223
-508 224 -1060 389 -1595 475 -112 18 -136 22 -160 24 -108 12 -148 17 -165
21 -11 2 -56 7 -100 10 -44 4 -96 8 -115 10 -124 12 -693 28 -703 19z"/>
</g>
</svg>
